<?xml version="1.0" encoding="UTF-8"?>
<svg width="160px" height="120px" viewBox="0 0 160 120" version="1.1" xmlns="http://www.w3.org/2000/svg" xmlns:xlink="http://www.w3.org/1999/xlink">
    <!-- Generator: Sketch 48.2 (47327) - http://www.bohemiancoding.com/sketch -->
    <title>Group 6</title>
    <desc>Created with Sketch.</desc>
    <defs></defs>
    <g id="About-Twic-2" stroke="none" stroke-width="1" fill="none" fill-rule="evenodd" transform="translate(-113.000000, -308.000000)">
        <g id="Group-2" transform="translate(16.000000, 240.000000)">
            <g id="Group-6" transform="translate(97.000000, 68.000000)">
                <path d="M60.8554687,119.5 C88.4697062,119.5 159.871094,82.1572062 159.871094,54.5429688 C159.871094,26.9287313 102.114237,0.98828125 74.5,0.98828125 C46.8857625,0.98828125 -1.8189894e-12,11.3857625 -1.8189894e-12,39 C-1.8189894e-12,66.6142375 33.2412313,119.5 60.8554687,119.5 Z" id="Oval-3" fill="#DBF3F3" opacity="0.400000006"></path>
                <g id="multiple-19" transform="translate(45.000000, 30.000000)">
                    <path d="M38.5,12.5 C38.5,17.471 42.529,23.5 47.5,23.5 C52.471,23.5 56.5,17.471 56.5,12.5 C56.5,7.529 52.471,3.5 47.5,3.5 C42.529,3.5 38.5,7.529 38.5,12.5 Z" id="Shape" fill="#CFEFEF"></path>
                    <path d="M36.5,11.5 C36.5,16.471 40.529,22.5 45.5,22.5 C50.471,22.5 54.5,16.471 54.5,11.5 C54.5,6.529 50.471,2.5 45.5,2.5 C40.529,2.5 36.5,6.529 36.5,11.5 Z" id="Shape" stroke="#0DAFAC" stroke-linecap="square"></path>
                    <path d="M49.5,44.5 L63.5,44.5 L63.5,40.176 C63.5,37.73 62.03,35.519 59.758,34.614 C57.157,33.577 53.3,32.5 48.5,32.5 C43.7,32.5 39.843,33.577 37.242,34.613 C36.17,35.04 35.281,35.753 34.637,36.649" id="Shape" fill="#CFEFEF"></path>
                    <path d="M46.5,42.5 L60.5,42.5 L60.5,38.176 C60.5,35.73 59.03,33.519 56.758,32.614 C54.157,31.577 50.3,30.5 45.5,30.5 C40.7,30.5 36.843,31.577 34.242,32.613 C33.17,33.04 32.281,33.753 31.637,34.649" id="Shape" stroke="#0DAFAC"></path>
                    <path d="M41.5,50.5 L3.5,50.5 L3.5,44.87 C3.5,41.818 5.222,39.025 7.966,37.688 C11.168,36.128 16.054,34.5 22.5,34.5 C28.946,34.5 33.832,36.128 37.034,37.688 C39.778,39.025 41.5,41.818 41.5,44.87 L41.5,50.5 Z" id="Shape" fill="#CFEFEF"></path>
                    <path d="M38.5,48.5 L0.5,48.5 L0.5,42.87 C0.5,39.818 2.222,37.025 4.966,35.688 C8.168,34.128 13.054,32.5 19.5,32.5 C25.946,32.5 30.832,34.128 34.034,35.688 C36.778,37.025 38.5,39.818 38.5,42.87 L38.5,48.5 Z" id="Shape" stroke="#0DAFAC" stroke-linecap="square"></path>
                    <path d="M33.5,12.5 C33.5,18.575 28.575,25.5 22.5,25.5 C16.425,25.5 11.5,18.575 11.5,12.5 C11.5,6.425 16.425,1.5 22.5,1.5 C28.575,1.5 33.5,6.425 33.5,12.5 Z" id="Shape" fill="#CFEFEF"></path>
                    <path d="M30.5,11.5 C30.5,17.575 25.575,24.5 19.5,24.5 C13.425,24.5 8.5,17.575 8.5,11.5 C8.5,5.425 13.425,0.5 19.5,0.5 C25.575,0.5 30.5,5.425 30.5,11.5 Z" id="Shape" stroke="#0DAFAC" stroke-linecap="square"></path>
                </g>
                <g id="Group-4" opacity="0.200000003" transform="translate(39.000000, 12.500000) scale(1, -1) rotate(90.000000) translate(-39.000000, -12.500000) translate(33.000000, 7.000000)">
                    <polygon id="Star" fill-opacity="0.15" fill="#0DAFAC" points="7.2 8.55555556 3.80588745 9.5680776 4.8 6.11111111 3.80588745 2.65414463 7.2 3.66666667 10.5941125 2.65414463 9.6 6.11111111 10.5941125 9.5680776"></polygon>
                    <polygon id="Star" stroke="#0DAFAC" points="4.8 7.33333333 1.40588745 8.34585537 2.4 4.88888889 1.40588745 1.4319224 4.8 2.44444444 8.19411255 1.4319224 7.2 4.88888889 8.19411255 8.34585537"></polygon>
                </g>
                <g id="Group-4" opacity="0.5" transform="translate(108.000000, 13.500000) scale(1, -1) rotate(90.000000) translate(-108.000000, -13.500000) translate(102.000000, 8.000000)">
                    <polygon id="Star" fill-opacity="0.15" fill="#0DAFAC" points="7.2 8.55555556 3.80588745 9.5680776 4.8 6.11111111 3.80588745 2.65414463 7.2 3.66666667 10.5941125 2.65414463 9.6 6.11111111 10.5941125 9.5680776"></polygon>
                    <polygon id="Star" stroke="#0DAFAC" points="4.8 7.33333333 1.40588745 8.34585537 2.4 4.88888889 1.40588745 1.4319224 4.8 2.44444444 8.19411255 1.4319224 7.2 4.88888889 8.19411255 8.34585537"></polygon>
                </g>
                <g id="Group-4" transform="translate(118.000000, 93.500000) scale(1, -1) rotate(90.000000) translate(-118.000000, -93.500000) translate(112.000000, 88.000000)">
                    <polygon id="Star" fill-opacity="0.15" fill="#0DAFAC" points="7.2 8.55555556 3.80588745 9.5680776 4.8 6.11111111 3.80588745 2.65414463 7.2 3.66666667 10.5941125 2.65414463 9.6 6.11111111 10.5941125 9.5680776"></polygon>
                    <polygon id="Star" stroke="#0DAFAC" points="4.8 7.33333333 1.40588745 8.34585537 2.4 4.88888889 1.40588745 1.4319224 4.8 2.44444444 8.19411255 1.4319224 7.2 4.88888889 8.19411255 8.34585537"></polygon>
                </g>
                <g id="Group-4" transform="translate(22.000000, 63.500000) scale(1, -1) rotate(90.000000) translate(-22.000000, -63.500000) translate(17.000000, 59.000000)">
                    <polygon id="Star" fill-opacity="0.15" fill="#0DAFAC" points="6 7 3.17157288 7.82842712 4 5 3.17157288 2.17157288 6 3 8.82842712 2.17157288 8 5 8.82842712 7.82842712"></polygon>
                    <polygon id="Star" stroke="#0DAFAC" points="4 6 1.17157288 6.82842712 2 4 1.17157288 1.17157288 4 2 6.82842712 1.17157288 6 4 6.82842712 6.82842712"></polygon>
                </g>
            </g>
        </g>
    </g>
</svg>