<?xml version="1.0" encoding="UTF-8"?>
<svg width="161px" height="133px" viewBox="0 0 161 133" version="1.1" xmlns="http://www.w3.org/2000/svg" xmlns:xlink="http://www.w3.org/1999/xlink">
    <!-- Generator: Sketch 48.2 (47327) - http://www.bohemiancoding.com/sketch -->
    <title>Group 6</title>
    <desc>Created with Sketch.</desc>
    <defs></defs>
    <g id="authentification-email" stroke="none" stroke-width="1" fill="none" fill-rule="evenodd" transform="translate(-113.000000, -178.000000)">
        <g id="Group-6" transform="translate(113.000000, 176.000000)">
            <path d="M60.8554687,134.5 C88.4697062,134.5 159.871094,97.1572062 159.871094,69.5429688 C159.871094,41.9287313 88.4697062,6.1015625 60.8554688,6.1015625 C33.2412313,6.1015625 -1.8189894e-12,26.3857625 -1.8189894e-12,54 C-1.8189894e-12,81.6142375 33.2412313,134.5 60.8554687,134.5 Z" id="Oval-3" fill="#DBF3F3" opacity="0.400000006" transform="translate(79.935547, 70.300781) scale(-1, 1) translate(-79.935547, -70.300781) "></path>
            <g id="spaceship" transform="translate(52.000000, 40.000000)">
                <path d="M25.384,52.778 L10.222,37.616 C10.222,37.616 23.173,5.396 59.5,3.5 C57.447,39.669 25.384,52.778 25.384,52.778 Z" id="Shape" fill="#CFEFEF"></path>
                <path d="M37.23,5.765 L53.17,21.704" id="Shape" stroke="#0DAFAC"></path>
                <path d="M30.98,9.233 C23.151,5.861 13.721,7.372 7.326,13.767 C6.015,15.078 4.933,16.528 4.032,18.055 L13.22,27.243" id="Shape" stroke="#0DAFAC"></path>
                <path d="M49.714,27.9 C53.158,35.754 51.662,45.244 45.232,51.674 C43.921,52.985 42.471,54.067 40.944,54.968 L31.718,45.742" id="Shape" stroke="#0DAFAC"></path>
                <path d="M24.384,49.778 L9.222,34.616 C9.222,34.616 22.173,2.396 58.5,0.5 C56.447,36.669 24.384,49.778 24.384,49.778 Z" id="Shape" stroke="#0DAFAC" stroke-linecap="square"></path>
                <circle id="Oval" stroke="#0DAFAC" stroke-width="0.99999041" fill="#FFFFFF" stroke-linecap="square" transform="translate(33.860400, 25.138974) rotate(-45.000000) translate(-33.860400, -25.138974) " cx="33.8604" cy="25.1389738" r="5.36094859"></circle>
                <path d="M1.5,54.5 C1.5,51.186 4.186,48.5 7.5,48.5 C10.814,48.5 13.5,51.186 13.5,54.5 C13.5,57.814 10.814,60.5 7.5,60.5 C6.406,60.5 1.5,60.5 1.5,60.5 C1.5,60.5 1.5,56.72 1.5,54.5 Z" id="Shape" fill="#CFEFEF"></path>
                <path d="M0.5,52.5 C0.5,49.186 3.186,46.5 6.5,46.5 C9.814,46.5 12.5,49.186 12.5,52.5 C12.5,55.814 9.814,58.5 6.5,58.5 C5.406,58.5 0.5,58.5 0.5,58.5 C0.5,58.5 0.5,54.72 0.5,52.5 Z" id="Shape" stroke="#0DAFAC" stroke-linecap="square"></path>
            </g>
            <path d="M117,41 C117,37.6666667 120.333333,34.3333333 127,31" id="Path-2" stroke="#0DAFAC"></path>
            <path d="M119,45 C119,43.3333333 120.666667,41.6666667 124,40" id="Path-2" stroke="#DBF3F3"></path>
            <g id="Group-4" transform="translate(78.000000, 7.500000) rotate(-20.000000) translate(-78.000000, -7.500000) translate(72.000000, 2.000000)">
                <polygon id="Star" fill-opacity="0.15" fill="#0DAFAC" points="7.2 8.55555556 3.80588745 9.5680776 4.8 6.11111111 3.80588745 2.65414463 7.2 3.66666667 10.5941125 2.65414463 9.6 6.11111111 10.5941125 9.5680776"></polygon>
                <polygon id="Star" stroke="#0DAFAC" points="4.8 7.33333333 1.40588745 8.34585537 2.4 4.88888889 1.40588745 1.4319224 4.8 2.44444444 8.19411255 1.4319224 7.2 4.88888889 8.19411255 8.34585537"></polygon>
            </g>
            <g id="Group-4" opacity="0.5" transform="translate(155.000000, 77.500000) rotate(-51.000000) translate(-155.000000, -77.500000) translate(149.000000, 72.000000)">
                <polygon id="Star" fill-opacity="0.15" fill="#0DAFAC" points="7.2 8.55555556 3.80588745 9.5680776 4.8 6.11111111 3.80588745 2.65414463 7.2 3.66666667 10.5941125 2.65414463 9.6 6.11111111 10.5941125 9.5680776"></polygon>
                <polygon id="Star" stroke="#0DAFAC" points="4.8 7.33333333 1.40588745 8.34585537 2.4 4.88888889 1.40588745 1.4319224 4.8 2.44444444 8.19411255 1.4319224 7.2 4.88888889 8.19411255 8.34585537"></polygon>
            </g>
            <g id="Group-4" transform="translate(32.000000, 57.500000) rotate(13.000000) translate(-32.000000, -57.500000) translate(27.000000, 53.000000)">
                <polygon id="Star" fill-opacity="0.15" fill="#0DAFAC" points="6 7 3.17157288 7.82842712 4 5 3.17157288 2.17157288 6 3 8.82842712 2.17157288 8 5 8.82842712 7.82842712"></polygon>
                <polygon id="Star" stroke="#0DAFAC" points="4 6 1.17157288 6.82842712 2 4 1.17157288 1.17157288 4 2 6.82842712 1.17157288 6 4 6.82842712 6.82842712"></polygon>
            </g>
        </g>
    </g>
</svg>